<?xml version="1.0" encoding="UTF-8" standalone="no"?>
<svg
   xmlns:dc="http://purl.org/dc/elements/1.1/"
   xmlns:cc="http://creativecommons.org/ns#"
   xmlns:rdf="http://www.w3.org/1999/02/22-rdf-syntax-ns#"
   xmlns:svg="http://www.w3.org/2000/svg"
   xmlns="http://www.w3.org/2000/svg"
   xmlns:sodipodi="http://sodipodi.sourceforge.net/DTD/sodipodi-0.dtd"
   xmlns:inkscape="http://www.inkscape.org/namespaces/inkscape"
   viewBox="0 0 45 45"
   style="enable-background:new 0 0 45 45;"
   xml:space="preserve"
   version="1.1"
   id="svg2"
   sodipodi:docname="Twemoji2_1f914.svg"
   inkscape:version="0.92.4 (5da689c313, 2019-01-14)"><sodipodi:namedview
     pagecolor="#ffffff"
     bordercolor="#666666"
     borderopacity="1"
     objecttolerance="10"
     gridtolerance="10"
     guidetolerance="10"
     inkscape:pageopacity="0"
     inkscape:pageshadow="2"
     inkscape:window-width="1920"
     inkscape:window-height="1017"
     id="namedview3759"
     showgrid="false"
     inkscape:zoom="18.844444"
     inkscape:cx="16.928066"
     inkscape:cy="22.5"
     inkscape:window-x="-8"
     inkscape:window-y="-8"
     inkscape:window-maximized="1"
     inkscape:current-layer="svg2" /><metadata
     id="metadata8"><rdf:RDF><cc:Work
         rdf:about=""><dc:format>image/svg+xml</dc:format><dc:type
           rdf:resource="http://purl.org/dc/dcmitype/StillImage" /></cc:Work></rdf:RDF></metadata><defs
     id="defs6"><clipPath
       id="clipPath16"
       clipPathUnits="userSpaceOnUse"><path
         id="path18"
         d="M 0,36 36,36 36,0 0,0 0,36 Z" /></clipPath></defs><g
     transform="matrix(1.25,0,0,-1.25,0,45)"
     id="g10" /><path
     inkscape:connector-curvature="0"
     id="path46"
     style="fill:#f4900c;fill-opacity:1;fill-rule:nonzero;stroke:none;stroke-width:1.25"
     d="m 14.305403,21.689904 c 0,0 1.58125,-0.51375 1.78625,-1.69 0.21625,-1.21375 -0.78,-1.45875 -0.78,-1.45875 0,0 1.30125,-0.26 1.465,-1.72 0.15375,-1.375 -1.0775,-1.70375 -1.0775,-1.70375 0,0 1.2125,-0.5 1.27,-1.92375 0.0475,-1.19875 -1.24375,-1.785 -1.24375,-1.785 0,0 6.2975,-1.5249998 6.94375,-1.6749998 0.645,-0.15125 1.65125,-0.77 1.3375,-2.11875 -0.31125,-1.35 -1.505,-1.3975 -2.1225,-1.25375 -0.6175,0.145 -8.43,1.95875 -11.125,2.58625 -0.2875,0.06625 -1.6349996,0.3775 -1.7987496,0.4175 -0.675,0.15875 -0.98125,-0.13875 -0.50625,-0.64 0.63625,-0.67 1.04125,-1.41125 1.18375,-2.64125 0.14875,-1.295 -0.29,-2.8925 -0.54125,-3.51125 -0.4675,-1.15125 -1.25625,-2.06124997 -2.1675,-2.37374997 -1.4225,-0.4875 -2.4325,0.40125 -1.9275,1.95124997 0.755,2.31875 0.26125,4.21875 -1.04125,5.36625 -3.06124898,2.6962498 -4.48624898,4.6187498 -3.53749898,8.7162498 1.03374898,4.46875 5.47124898,7.345 9.93999858,6.31 0.23625,-0.0525 3.9425,-0.8525 3.9425,-0.8525" /></svg>