<?xml version="1.0" encoding="UTF-8"?>
<svg width="67px" height="57px" viewBox="0 0 67 57" version="1.1" xmlns="http://www.w3.org/2000/svg" xmlns:xlink="http://www.w3.org/1999/xlink" xmlns:sketch="http://www.bohemiancoding.com/sketch/ns">
    <!-- Generator: Sketch 3.4.2 (15855) - http://www.bohemiancoding.com/sketch -->
    <title>Group</title>
    <desc>Created with Sketch.</desc>
    <defs>
        <linearGradient x1="15.7716645%" y1="85.0853941%" x2="68.2932205%" y2="-13.2105873%" id="linearGradient-1">
            <stop stop-color="#F6A323" offset="0.7605441%"></stop>
            <stop stop-color="#F7A724" offset="2.55%"></stop>
            <stop stop-color="#FAC12B" offset="14.52%"></stop>
            <stop stop-color="#FCD32F" offset="26.97%"></stop>
            <stop stop-color="#FEDE32" offset="40.08%"></stop>
            <stop stop-color="#FEE133" offset="54.94%"></stop>
        </linearGradient>
    </defs>
    <g id="Page-1" stroke="none" stroke-width="1" fill="none" fill-rule="evenodd" sketch:type="MSPage">
        <g id="Group" sketch:type="MSLayerGroup">
            <path d="M25.2,54.52 C21.12,54.52 17.52,53.37 14.19,51 C7.97,46.57 6.91,39.29 5.99,32.87 C5.47,29.29 5.88,27.02 6.24,25.02 C6.62,22.9 6.95,21.06 6.16,17.61 C5.98,16.83 5.44,15.6 4.93,14.41 C3.47,11.06 1.81,7.26 3.83,4.81 C4.9,3.51 6.75,2.76 8.89,2.76 C10.82,2.76 12.66,3.39 13.93,4.49 C16.66,6.85 17.95,9.37 19.45,15.29 C20.06,17.71 20.9,18.44 22.23,18.95 C22.5,19.06 22.82,19.11 23.2,19.11 C24.71,19.11 27.22,18.31 31.59,16.44 C33.24,15.73 35.34,14.71 37.56,13.62 C44.41,10.26 52.18,6.46 57.47,6.46 C58.34,6.46 59.14,6.56 59.85,6.77 C62.3,7.48 63.96,9.12 64.42,11.26 C64.87,13.4 64.01,15.75 62.22,17.26 C60.38,18.81 52.23,22.63 47.26,24.48 C47.67,24.86 48.01,25.31 48.27,25.81 C49.04,27.3 49.04,29.15 48.27,31.46 C48.12,31.9 47.94,32.27 47.75,32.57 C49.18,34.35 49.56,36.5 48.85,38.82 C48.69,39.35 48.47,39.78 48.19,40.16 C48.85,40.89 49.57,42.11 49.25,44.13 C48.5,48.82 43.5,50.29 36.58,52.32 C35.87,52.53 35.14,52.74 34.38,52.97 C30.91,54.02 27.92,54.52 25.2,54.52 L25.2,54.52 Z" id="Shape" fill="url(#linearGradient-1)" sketch:type="MSShapeGroup"></path>
            <path d="M8.88,4.78 C10.23,4.78 11.64,5.18 12.61,6.02 C15.01,8.1 16.09,10.26 17.5,15.8 C18.26,18.78 19.51,20.07 21.51,20.84 C22.01,21.03 22.56,21.13 23.19,21.13 C25.11,21.13 27.83,20.24 32.37,18.31 C38.85,15.55 50.91,8.49 57.46,8.49 C58.13,8.49 58.74,8.56 59.28,8.72 C63.36,9.91 63.22,13.81 60.91,15.76 C59.32,17.1 50.26,21.4 45.32,23.07 C41.76,24.27 41.07,24.67 41.11,24.94 C41.12,25.01 41.21,25.03 41.34,25.03 C41.66,25.03 42.27,24.91 42.96,24.91 C43.36,24.91 43.79,24.95 44.21,25.08 C47.41,26.06 47.03,28.77 46.34,30.86 C45.84,32.36 44.91,32.12 45.06,32.87 C45.12,33.19 45.79,33.42 46.01,33.68 C46.99,34.8 47.51,36.29 46.9,38.25 C46.73,38.8 46.53,39.13 45.97,39.48 C45.44,39.81 45.39,40.24 45.8,40.71 C46.33,41.32 47.57,41.74 47.24,43.83 C46.63,47.64 41.57,48.74 33.77,51.07 C30.58,52.03 27.76,52.52 25.19,52.52 C21.49,52.52 18.33,51.5 15.34,49.37 C10.01,45.58 8.97,39.57 7.96,32.58 C6.95,25.59 9.75,24.38 8.09,17.16 C7.4,14.16 3.53,8.29 5.35,6.08 C6.08,5.23 7.45,4.78 8.88,4.78 L8.88,4.78 Z M8.88,0.78 C6.14,0.78 3.73,1.79 2.28,3.55 C-0.52,6.95 1.48,11.54 3.09,15.22 C3.55,16.27 4.07,17.47 4.21,18.07 C4.91,21.12 4.64,22.61 4.27,24.68 C3.9,26.72 3.45,29.26 4.01,33.17 C5,39.99 6.11,47.72 13.04,52.65 C16.72,55.26 20.7,56.54 25.21,56.54 C28.12,56.54 31.3,56.01 34.93,54.92 C35.69,54.69 36.41,54.48 37.12,54.27 C44.46,52.11 50.26,50.41 51.21,44.47 C51.52,42.54 51.11,41.09 50.53,40.05 C50.62,39.83 50.69,39.62 50.75,39.43 C51.52,36.94 51.26,34.51 50.04,32.43 C50.08,32.33 50.11,32.23 50.15,32.12 C50.48,31.14 51.43,28.26 50.28,25.46 C55.19,23.44 61.68,20.35 63.5,18.82 C65.88,16.81 66.98,13.77 66.37,10.88 C65.76,8 63.59,5.81 60.41,4.88 C59.52,4.62 58.53,4.49 57.47,4.49 C51.71,4.49 43.72,8.4 36.68,11.85 C34.49,12.92 32.41,13.94 30.81,14.62 C28.29,15.69 24.76,17.12 23.2,17.12 C23.05,17.12 22.97,17.1 22.95,17.1 C22.32,16.86 21.87,16.69 21.39,14.81 C19.96,9.17 18.67,5.96 15.24,2.99 C13.6,1.58 11.29,0.78 8.88,0.78 L8.88,0.78 L8.88,0.78 Z" id="Shape" fill="#EB8F00" sketch:type="MSShapeGroup"></path>
        </g>
    </g>
</svg>